<svg xmlns="http://www.w3.org/2000/svg" xmlns:xlink="http://www.w3.org/1999/xlink" viewBox="0 0 376.53 91.22"><defs><clipPath id="a5ede4de-80f5-4be9-99f8-e2fd87df7849" transform="translate(0 0.87)"><path d="M60.76,65.77l-1.82-3-4.12-6.72a21.14,21.14,0,1,0-28.62,0L10.72,81.32a1.39,1.39,0,0,1-.66.57,1.45,1.45,0,0,1-.9,0,1.3,1.3,0,0,1-1-1.34V40.51h0a32.36,32.36,0,1,1,57,21,31.71,31.71,0,0,1-4.4,4.28m-20.25,7a32.39,32.39,0,0,0,7.22-.71,32.68,32.68,0,0,0,6.08-2l-1.81-3-6-9.87a4.07,4.07,0,0,1,1.35-5.6,13,13,0,1,0-13.59,0,4.08,4.08,0,0,1,1.36,5.6l-3.93,6.41L27.81,69l-.6,1A30.1,30.1,0,0,0,40.51,72.77ZM18.69,83.9l-1,1.66A9.53,9.53,0,0,1,13,89.48,9.42,9.42,0,0,1,7,89.76a9.46,9.46,0,0,1-7-9.18V40.51H0A40.46,40.46,0,1,1,41.82,81c-.19,0-1.14,0-1.31,0a40.3,40.3,0,0,1-17.59-4l-4.23,6.9Z" style="fill:none;clip-rule:evenodd"/></clipPath><linearGradient id="eee8bce4-1e70-4686-8950-3011ac5b9bef" x1="47.95" y1="-3.94" x2="34.61" y2="87.72" gradientUnits="userSpaceOnUse"><stop offset="0" stop-color="#ff8e38"/><stop offset="1" stop-color="#ff4629"/></linearGradient><clipPath id="bee8b7ca-c405-4f59-adac-f9fe3055ca71" transform="translate(0 0.87)"><path d="M185.56,11.91a6.6,6.6,0,0,1,2.29-5.14,8.32,8.32,0,0,1,5.77-2,6.12,6.12,0,0,1,4.23,1.38,4.6,4.6,0,0,1,1.54,3.6,6.57,6.57,0,0,1-2.25,5.1,8.28,8.28,0,0,1-5.73,2,6.37,6.37,0,0,1-4.31-1.34,4.48,4.48,0,0,1-1.54-3.56" style="fill:none;clip-rule:evenodd"/></clipPath><linearGradient id="edf23d8e-613d-4cfe-afc4-38a68364b9f2" x1="193.25" y1="4.89" x2="191.83" y2="17.29" xlink:href="#eee8bce4-1e70-4686-8950-3011ac5b9bef"/></defs><g id="adcf173e-a8db-4643-915a-ac6b12fece1b" data-name="Camada 2"><g id="f481bc91-087d-4798-8021-9ea152e276b7" data-name="Layer 1"><g style="clip-path:url(#a5ede4de-80f5-4be9-99f8-e2fd87df7849)"><rect width="81.49" height="91.22" style="fill:url(#eee8bce4-1e70-4686-8950-3011ac5b9bef)"/></g><path d="M122.38,53a12,12,0,0,0,8.21-3.09,14.56,14.56,0,0,0,4.51-8.55,19.08,19.08,0,0,0,.22-2.76A8.9,8.9,0,0,0,133,32a8.9,8.9,0,0,0-6.51-2.33,12,12,0,0,0-8.22,3.17,14.34,14.34,0,0,0-4.51,8.54A17.58,17.58,0,0,0,113.5,44a8.89,8.89,0,0,0,2.44,6.62,8.77,8.77,0,0,0,6.44,2.4m8.94-32.29q6.69,0,10.66,4.14t4,11.49a30.63,30.63,0,0,1-.44,5,29,29,0,0,1-4.29,11,21.66,21.66,0,0,1-7.63,7.16A19.67,19.67,0,0,1,124,62a13.19,13.19,0,0,1-8.26-2.43,10.48,10.48,0,0,1-4-6.51L108,74.41H97.74l9.36-53.18h10.26l-1.53,8.36a16.81,16.81,0,0,1,6.33-6.47A17.69,17.69,0,0,1,131.32,20.72Z" transform="translate(0 0.87)" style="fill:#333;fill-rule:evenodd"/><path d="M164,28.94a21.58,21.58,0,0,1,7-6.08,18.15,18.15,0,0,1,8.76-2.21l-2,11h-3q-11.28,0-13.09,10.47l-3.42,19.42H148l7.13-40.29h10.25Z" transform="translate(0 0.87)" style="fill:#333;fill-rule:evenodd"/><polygon points="195.56 22.1 188.44 62.39 178.18 62.39 185.31 22.1 195.56 22.1" style="fill:#333;fill-rule:evenodd"/><g style="clip-path:url(#bee8b7ca-c405-4f59-adac-f9fe3055ca71)"><rect x="185.56" y="5.59" width="13.83" height="12.1" style="fill:url(#edf23d8e-613d-4cfe-afc4-38a68364b9f2)"/></g><polygon points="215.78 52.13 231.27 22.1 242.18 22.1 220.14 62.39 207.64 62.39 199.93 22.1 210.84 22.1 215.78 52.13" style="fill:#333;fill-rule:evenodd"/><path d="M263.11,29.66a12,12,0,0,0-8.29,3.13,14.42,14.42,0,0,0-4.44,8.58,24.48,24.48,0,0,0-.29,2.84,8.69,8.69,0,0,0,2.36,6.47A8.9,8.9,0,0,0,259,53a12,12,0,0,0,8.22-3.17,14.22,14.22,0,0,0,4.51-8.47,21,21,0,0,0,.29-2.76,8.34,8.34,0,0,0-8.87-8.95M261,20.72a14.22,14.22,0,0,1,8.62,2.43,10.3,10.3,0,0,1,4.11,6.44l1.52-8.36h10.18l-7.12,40.29H268.13l1.52-8.44a17.24,17.24,0,0,1-6.32,6.51A17.56,17.56,0,0,1,254.16,62q-6.82,0-10.76-4.21T239.47,46.1a30.78,30.78,0,0,1,.51-5.6A27.18,27.18,0,0,1,244.13,30a21,21,0,0,1,7.45-6.87A19.68,19.68,0,0,1,261,20.72Z" transform="translate(0 0.87)" style="fill:#333;fill-rule:evenodd"/><path d="M311.85,20.72q8,0,12.58,4.22T329,36.43H318.18A7.05,7.05,0,0,0,316,31.37a7.78,7.78,0,0,0-5.49-1.85,10.5,10.5,0,0,0-7.38,3q-3.24,3-4.26,8.83a17.84,17.84,0,0,0-.29,3.27q0,4.23,2.15,6.4a7.43,7.43,0,0,0,5.56,2.19,10.56,10.56,0,0,0,6.22-1.86,10.69,10.69,0,0,0,3.89-5h10.84A22.92,22.92,0,0,1,305,62q-7.77,0-12.36-4.4t-4.58-12.18a29.1,29.1,0,0,1,.44-4.94,24.5,24.5,0,0,1,4.43-10.58,22.26,22.26,0,0,1,8.26-6.84,24.29,24.29,0,0,1,10.65-2.36" transform="translate(0 0.87)" style="fill:#333;fill-rule:evenodd"/><polygon points="344.02 22.1 350.2 49.44 365.18 22.1 376.53 22.1 345 75.28 333.85 75.28 342.64 61.22 332.6 22.1 344.02 22.1" style="fill:#333;fill-rule:evenodd"/><path d="M364.3,67a.95.95,0,1,1,0,1.89h-1.7V67Zm2.41,4.78-1.78-2a1.75,1.75,0,0,0,1.49-1.85,2,2,0,0,0-2.12-2c-.94,0-1.87,0-2.81,0v5.9h1.11v-2h1.07l1.72,2h1.32Z" transform="translate(0 0.87)" style="fill:#333;fill-rule:evenodd"/><path d="M367.28,65.45a4.83,4.83,0,1,0,1.41,3.41,4.81,4.81,0,0,0-1.41-3.41m-3.41-2.14A5.57,5.57,0,1,1,360,64.94,5.5,5.5,0,0,1,363.87,63.31Z" transform="translate(0 0.87)" style="fill:#333;fill-rule:evenodd"/></g></g></svg>