<?xml version="1.0" encoding="utf-8"?>
<!-- Generator: Adobe Illustrator 25.0.0, SVG Export Plug-In . SVG Version: 6.00 Build 0)  -->
<svg version="1.1" id="Layer_1" xmlns="http://www.w3.org/2000/svg" xmlns:xlink="http://www.w3.org/1999/xlink" x="0px" y="0px"
	 viewBox="0 0 480 480" style="enable-background:new 0 0 480 480;" xml:space="preserve">
<style type="text/css">
	.st0{fill-rule:evenodd;clip-rule:evenodd;fill:#FFFFFF;}
	.st1{display:none;}
	.st2{font-family:'Poppins-Thin';}
	.st3{font-size:18.1475px;}
	.st4{font-family:'Poppins-Medium';}
	.st5{font-size:17.5686px;}
	.st6{font-family:'Poppins-SemiBold';}
	.st7{font-size:17.4658px;}
</style>
<path class="st0" d="M112.5,260.7l-1.83-2.98l-4.12-6.73c2.4-2.2,4.22-4.9,5.37-7.85c1.64-4.18,1.94-8.88,0.66-13.43
	c-1.29-4.56-4.01-8.41-7.59-11.13c-3.58-2.71-8.03-4.29-12.75-4.29c-4.73,0-9.17,1.57-12.76,4.29c-3.58,2.71-6.31,6.57-7.59,11.13
	c-1.28,4.55-0.98,9.25,0.66,13.43c1.16,2.96,2.98,5.65,5.38,7.85l-15.47,25.25c-0.17,0.27-0.4,0.47-0.67,0.57
	c-0.26,0.1-0.58,0.12-0.9,0.03c-0.31-0.09-0.56-0.26-0.73-0.48c-0.17-0.22-0.26-0.52-0.26-0.85v-40.08h-0.02
	c0-7.15,2.36-13.88,6.44-19.35c4.07-5.46,9.86-9.63,16.71-11.67c6.87-2.04,14-1.7,20.4,0.66c6.39,2.35,12.04,6.71,15.94,12.71
	c3.91,6,5.6,12.94,5.17,19.74c-0.44,6.8-3.01,13.46-7.64,18.9C115.55,258.01,114.08,259.44,112.5,260.7 M92.25,267.7
	c2.4,0,4.87-0.17,7.22-0.71c2.09-0.48,4.12-1.16,6.08-2.04l-1.82-2.97l-6.05-9.87c-1.17-1.92-0.56-4.43,1.36-5.6
	c2.47-1.52,4.29-3.77,5.3-6.34c1.01-2.57,1.19-5.47,0.4-8.27c-0.79-2.79-2.46-5.16-4.66-6.82c-2.2-1.66-4.93-2.63-7.84-2.63
	c-2.91,0-5.65,0.97-7.84,2.63c-2.2,1.67-3.87,4.03-4.66,6.82c-0.79,2.8-0.6,5.7,0.41,8.27c1.01,2.57,2.83,4.82,5.3,6.34
	c1.92,1.17,2.53,3.68,1.36,5.6l-3.93,6.42l-3.33,5.43l-0.59,0.96C83.11,266.86,87.66,267.81,92.25,267.7z M70.43,278.84l-1.02,1.66
	c-1.13,1.84-2.77,3.19-4.65,3.92c-1.88,0.74-3.99,0.87-6.06,0.28c-2.08-0.59-3.81-1.8-5.04-3.42c-1.22-1.62-1.92-3.61-1.92-5.76
	v-40.08h0.02c0-8.98,2.95-17.41,8.03-24.23c5.09-6.82,12.34-12.05,20.95-14.6c8.59-2.55,17.51-2.12,25.5,0.82
	c7.99,2.94,15.06,8.4,19.96,15.93c4.89,7.52,7.02,16.19,6.48,24.68c-0.54,8.49-3.77,16.82-9.59,23.66
	c-5.82,6.83-13.53,11.35-21.83,13.24c-2.52,0.58-5.1,0.91-7.7,1c-0.19-0.01-1.14,0.01-1.31,0.01c-6.09,0.01-12.11-1.36-17.59-4.01
	L70.43,278.84L70.43,278.84z"/>
<path class="st0" d="M174.11,247.94c3.15,0,5.89-1.03,8.22-3.09c2.33-2.06,3.83-4.91,4.51-8.55c0.15-1.02,0.22-1.94,0.22-2.76
	c0-2.86-0.79-5.07-2.36-6.62c-1.58-1.55-3.74-2.33-6.51-2.33c-3.1,0-5.84,1.05-8.22,3.16c-2.38,2.11-3.88,4.96-4.51,8.54
	c-0.15,0.92-0.22,1.79-0.22,2.62c0,2.81,0.81,5.02,2.44,6.62C169.3,247.14,171.45,247.94,174.11,247.94 M183.06,215.65
	c4.46,0,8.01,1.38,10.65,4.15c2.64,2.76,3.96,6.59,3.96,11.49c0,1.6-0.15,3.27-0.44,5.02c-0.78,4.22-2.21,7.89-4.29,11.02
	c-2.08,3.13-4.63,5.52-7.64,7.16c-3.01,1.65-6.21,2.47-9.6,2.47c-3.39,0-6.14-0.81-8.25-2.44c-2.11-1.62-3.43-3.79-3.96-6.51
	l-3.76,21.33h-10.26l9.36-53.18h10.25l-1.53,8.36c1.5-2.72,3.61-4.87,6.33-6.47C176.61,216.45,179.66,215.65,183.06,215.65z"/>
<path class="st0" d="M215.74,223.87c1.94-2.57,4.28-4.59,7.02-6.07c2.74-1.48,5.66-2.22,8.76-2.22l-1.96,10.98h-2.98
	c-7.51,0-11.88,3.49-13.09,10.47l-3.42,19.42h-10.33l7.13-40.29h10.25L215.74,223.87z"/>
<polygon class="st0" points="247.3,216.16 240.17,256.45 229.92,256.45 237.05,216.16 "/>
<path class="st0" d="M237.29,206.85c0-2.06,0.76-3.77,2.29-5.14c1.53-1.37,3.45-2.05,5.77-2.05c1.79,0,3.2,0.46,4.23,1.38
	c1.03,0.92,1.54,2.12,1.54,3.6c0,2.05-0.75,3.75-2.25,5.1c-1.5,1.34-3.41,2.02-5.73,2.02c-1.84,0-3.28-0.45-4.31-1.34
	C237.8,209.51,237.29,208.32,237.29,206.85"/>
<polygon class="st0" points="267.52,246.2 283.01,216.16 293.92,216.16 271.88,256.45 259.37,256.45 251.66,216.16 262.57,216.16 
	"/>
<path class="st0" d="M314.84,224.6c-3.2,0-5.96,1.04-8.29,3.13c-2.33,2.08-3.8,4.94-4.44,8.58c-0.19,1.36-0.29,2.3-0.29,2.84
	c0,2.76,0.79,4.92,2.36,6.47c1.58,1.55,3.75,2.33,6.51,2.33c3.1,0,5.84-1.05,8.22-3.16c2.38-2.11,3.88-4.93,4.51-8.47
	c0.19-1.26,0.29-2.18,0.29-2.76c0-2.76-0.81-4.95-2.44-6.55C319.66,225.4,317.51,224.6,314.84,224.6 M312.74,215.65
	c3.54,0,6.41,0.81,8.62,2.44c2.21,1.62,3.58,3.77,4.11,6.44l1.53-8.36h10.18l-7.13,40.29h-10.18l1.53-8.44
	c-1.5,2.71-3.61,4.88-6.33,6.51c-2.71,1.62-5.77,2.44-9.16,2.44c-4.56,0-8.14-1.41-10.76-4.22c-2.62-2.81-3.93-6.71-3.93-11.71
	c0-1.89,0.17-3.76,0.51-5.6c0.73-4.02,2.11-7.54,4.14-10.54c2.04-3.01,4.52-5.3,7.46-6.87
	C306.25,216.44,309.39,215.65,312.74,215.65z"/>
<path class="st0" d="M363.59,215.65c5.33,0,9.53,1.41,12.58,4.22c3.05,2.81,4.58,6.64,4.58,11.49h-10.84
	c-0.1-2.13-0.81-3.82-2.15-5.05c-1.33-1.24-3.16-1.85-5.49-1.85c-2.76,0-5.22,1.01-7.38,3.02c-2.16,2.01-3.58,4.96-4.25,8.84
	c-0.19,1.02-0.29,2.11-0.29,3.27c0,2.81,0.71,4.95,2.15,6.4c1.43,1.45,3.28,2.18,5.56,2.18c2.38,0,4.45-0.62,6.22-1.85
	c1.77-1.24,3.07-2.92,3.89-5.05H379c-1.7,4.85-4.53,8.68-8.51,11.49c-3.98,2.81-8.56,4.22-13.74,4.22s-9.31-1.47-12.36-4.4
	c-3.05-2.93-4.58-6.99-4.58-12.18c0-1.55,0.14-3.2,0.44-4.95c0.73-4.07,2.21-7.6,4.44-10.58c2.23-2.98,4.98-5.26,8.25-6.84
	C356.2,216.44,359.76,215.65,363.59,215.65"/>
<polygon class="st0" points="395.76,216.16 401.94,243.51 416.92,216.16 428.26,216.16 396.73,269.34 385.59,269.34 394.37,255.29 
	384.34,216.16 "/>
<path class="st0" d="M416.03,261.88c0.7,0,1.01,0.47,1.01,0.95c0,0.47-0.3,0.95-1.01,0.95h-1.69v-1.89H416.03z M418.45,266.67
	l-1.79-2.01c1.12-0.23,1.49-1.04,1.49-1.86c0-1.02-0.73-1.95-2.12-1.96c-0.93,0.01-1.87,0-2.8,0v5.9h1.11v-1.97h1.07l1.72,1.97h1.32
	V266.67z"/>
<path class="st0" d="M419.02,260.39c-0.87-0.87-2.08-1.41-3.41-1.41c-1.33,0-2.54,0.54-3.41,1.41s-1.41,2.08-1.41,3.41
	c0,1.33,0.54,2.54,1.41,3.41c0.87,0.87,2.08,1.41,3.41,1.41c1.33,0,2.54-0.54,3.41-1.41c0.87-0.87,1.41-2.08,1.41-3.41
	C420.43,262.46,419.89,261.26,419.02,260.39 M415.61,258.25c1.53,0,2.92,0.62,3.92,1.62c1,1,1.62,2.39,1.62,3.92
	c0,1.53-0.62,2.92-1.62,3.92c-1,1-2.39,1.62-3.92,1.62c-1.53,0-2.92-0.62-3.92-1.62c-1-1-1.62-2.39-1.62-3.92
	c0-1.53,0.62-2.92,1.62-3.92C412.69,258.87,414.08,258.25,415.61,258.25z"/>
<text transform="matrix(1 0 0 1 168.9746 288.5703)" class="st1 st2 st3">privacidade e liberdade</text>
<text transform="matrix(1 0 0 1 168.9741 288.9072)" class="st1 st4 st5">privacidade e liberdade</text>
<text transform="matrix(1 0 0 1 168.9746 288.9746)" class="st1 st6 st7">privacidade e liberdade</text>
</svg>
