<svg width="86" height="18" viewBox="0 0 86 18" fill="none" xmlns="http://www.w3.org/2000/svg">
<path d="M5.80925 0.639434C6.59521 0.213146 7.48811 2.43232e-06 8.49328 2.43232e-06C9.66421 2.43232e-06 10.7228 0.293075 11.6746 0.873892C12.6209 1.46004 13.3748 2.2913 13.9255 3.36768C14.4762 4.44405 14.7542 5.69094 14.7542 7.11368C14.7542 8.53641 14.4762 9.78863 13.9255 10.881C13.3748 11.9734 12.6209 12.8206 11.6746 13.4227C10.7282 14.0249 9.66421 14.3233 8.49328 14.3233C7.48811 14.3233 6.60056 14.1155 5.83064 13.6998C5.48845 13.5133 5.173 13.3055 4.88428 13.071C4.51535 12.7726 3.96465 13.0337 3.96465 13.508V17.4352C3.96465 17.7442 3.71335 18 3.3979 18H1.06675C0.756641 18 0.5 17.7496 0.5 17.4352V0.788635C0.5 0.479576 0.751294 0.223803 1.06675 0.223803H3.3979C3.70801 0.223803 3.96465 0.474248 3.96465 0.788635V0.815278C3.96465 1.29485 4.5207 1.5453 4.88962 1.24689C5.1623 1.02309 5.46706 0.820606 5.8039 0.639434H5.80925ZM10.7924 4.92895C10.4502 4.32149 10.001 3.86323 9.43964 3.54352C8.87824 3.22913 8.27407 3.06927 7.62712 3.06927C6.98017 3.06927 6.39739 3.22913 5.83598 3.55418C5.27458 3.87922 4.82546 4.34814 4.48327 4.96093C4.14109 5.57371 3.96999 6.2984 3.96999 7.12966C3.96999 7.96093 4.14109 8.68562 4.48327 9.2984C4.82546 9.91119 5.27458 10.3854 5.83598 10.7052C6.39739 11.0302 6.99087 11.1901 7.62712 11.1901C8.26338 11.1901 8.88359 11.0249 9.43964 10.6892C10.001 10.3588 10.4502 9.88455 10.7924 9.26643C11.1345 8.65364 11.3056 7.9183 11.3056 7.07105C11.3056 6.2238 11.1345 5.52043 10.7924 4.91297V4.92895Z" fill="#23201F"/>
<path d="M21.2398 0.612793C21.8012 0.293077 22.4214 0.101247 23.1058 0.026647C23.4479 -0.0106532 23.7474 0.255777 23.7474 0.596807V3.18118C23.7474 3.50089 23.4907 3.75666 23.1699 3.75666H22.8117C21.6996 3.75666 20.8655 4.01244 20.2987 4.52398C19.7373 5.03553 19.454 5.9254 19.454 7.19361V13.3641C19.454 13.6838 19.1973 13.9396 18.8765 13.9396H16.4545C16.1337 13.9396 15.877 13.6838 15.877 13.3641V0.761993C15.877 0.442278 16.1337 0.186505 16.4545 0.186505H18.8765C19.1973 0.186505 19.454 0.442278 19.454 0.761993C19.454 1.25222 20.0368 1.51865 20.4057 1.19361C20.657 0.969809 20.935 0.777979 21.2344 0.607464L21.2398 0.612793Z" fill="#23201F"/>
<path d="M28.6663 0.831261V13.1616C28.6663 13.5879 28.3188 13.9343 27.891 13.9343H25.9395C25.5118 13.9343 25.1642 13.5879 25.1642 13.1616V0.831261C25.1642 0.404974 25.5118 0.0586149 25.9395 0.0586149H27.891C28.3188 0.0586149 28.6663 0.404974 28.6663 0.831261Z" fill="#23201F"/>
<path d="M37.2958 7.55062L39.9638 0.511542C40.0654 0.213141 40.3434 0.0106543 40.6642 0.0106543H42.835C43.3483 0.0106543 43.7011 0.5222 43.5247 0.996444L38.8998 13.46C38.7929 13.7478 38.5149 13.9396 38.2101 13.9396H34.9486C34.6385 13.9396 34.3658 13.7478 34.2589 13.46L29.6501 0.991116C29.4736 0.511542 29.8265 0.00532567 30.3398 0.00532567H32.5373C32.8527 0.00532567 33.1361 0.207812 33.2377 0.506214L35.9057 7.54529C36.3655 8.71225 36.8413 8.74955 37.3012 7.54529L37.2958 7.55062Z" fill="#23201F"/>
<path d="M44.717 3.34103C45.2677 2.26998 46.0109 1.44405 46.9519 0.868561C47.8929 0.293073 48.9462 0 50.1118 0C51.1277 0 52.0152 0.207815 52.7798 0.618117C53.1166 0.799289 53.4214 1.00178 53.6941 1.22558C54.063 1.52398 54.6084 1.26821 54.6084 0.793961V0.783304C54.6084 0.474245 54.8597 0.223801 55.1698 0.223801H57.5116C57.8217 0.223801 58.073 0.474245 58.073 0.783304V13.3748C58.073 13.6838 57.8217 13.9343 57.5116 13.9343H55.1698C54.8597 13.9343 54.6084 13.6838 54.6084 13.3748V13.3481C54.6084 12.8739 54.0577 12.6234 53.6887 12.9218C53.4161 13.1456 53.1113 13.3428 52.7798 13.524C51.9992 13.9449 51.1063 14.1528 50.0904 14.1528C48.9462 14.1528 47.8983 13.8543 46.9573 13.2629C46.0163 12.6714 45.2677 11.8295 44.7224 10.7531C44.1717 9.6714 43.899 8.42984 43.899 7.02842C43.899 5.627 44.1717 4.41208 44.7224 3.34103H44.717ZM54.0202 4.95027C53.6887 4.34281 53.2343 3.87922 52.6675 3.55417C52.1008 3.22913 51.4913 3.06927 50.839 3.06927C50.1867 3.06927 49.5878 3.22913 49.0371 3.54352C48.4864 3.8579 48.0426 4.32149 47.7005 4.92895C47.3583 5.53641 47.1872 6.25577 47.1872 7.08703C47.1872 7.91829 47.3583 8.64298 47.7005 9.26643C48.0426 9.88987 48.4918 10.3694 49.0532 10.6998C49.6146 11.0302 50.2081 11.2007 50.8443 11.2007C51.4806 11.2007 52.1061 11.0409 52.6729 10.7158C53.2396 10.3908 53.6887 9.92717 54.0256 9.31971C54.3571 8.71225 54.5282 7.98757 54.5282 7.14032C54.5282 6.29307 54.3624 5.56305 54.0256 4.95559L54.0202 4.95027Z" fill="#23201F"/>
<path d="M60.2919 3.31972C60.8586 2.27531 61.6499 1.46537 62.6605 0.889877C63.671 0.314389 64.8259 0.0266446 66.1251 0.0266446C67.7986 0.0266446 69.1888 0.442275 70.2848 1.27886C71.012 1.83304 71.5841 2.53641 71.9958 3.38899C72.3112 4.03908 71.8247 4.79574 71.1029 4.79574H69.4561C69.0925 4.79574 68.761 4.59325 68.5846 4.27354C68.3921 3.93251 68.1408 3.64476 67.8253 3.42096C67.3602 3.09059 66.7881 2.92007 66.1037 2.92007C65.1253 2.92007 64.3554 3.27176 63.7833 3.98046C63.2112 4.68384 62.9278 5.68561 62.9278 6.98579C62.9278 8.28597 63.2112 9.2611 63.7833 9.96448C64.35 10.6679 65.1253 11.0249 66.1037 11.0249C67.28 11.0249 68.1141 10.5773 68.5953 9.68206C68.7664 9.36767 69.0979 9.17584 69.4561 9.17584H71.0708C71.8193 9.17584 72.2952 9.96448 71.953 10.6306C71.5466 11.4298 70.9852 12.1012 70.2741 12.6554C69.1674 13.5133 67.7826 13.9449 66.1251 13.9449C64.8205 13.9449 63.6656 13.6572 62.6605 13.0817C61.6499 12.5062 60.864 11.6963 60.2919 10.6519C59.7198 9.60746 59.4364 8.38721 59.4364 6.99112C59.4364 5.59503 59.7198 4.37478 60.2919 3.33037V3.31972Z" fill="#23201F"/>
<path d="M85.2181 1.14032L78.246 17.4938C78.1177 17.7975 77.8183 17.9947 77.4868 17.9947H75.5085C74.915 17.9947 74.5194 17.3925 74.7547 16.849L76.7597 12.373C76.9468 11.8401 76.7971 11.5577 76.6046 11.1474L72.4449 1.12966C72.3326 0.857904 72.1936 0 73.2041 0H74.9739C75.2198 0 75.5299 0 75.7224 0.426288L78.2941 6.76199C78.6256 7.46003 78.754 7.52398 79.0641 6.76199L81.6732 0.447602C81.8925 0 82.1598 0 82.4913 0H84.4642C85.0523 0 85.448 0.596803 85.2234 1.13499L85.2181 1.14032Z" fill="#23201F"/>
<path d="M81.6626 17.3446C81.2562 16.9556 81.0477 16.4654 81.0477 15.8845C81.0477 15.3037 81.2509 14.8188 81.6626 14.4245C82.0689 14.0355 82.5822 13.8384 83.2024 13.8384C83.8226 13.8384 84.3306 14.0355 84.7423 14.4245C85.1486 14.8135 85.3571 15.3037 85.3571 15.8845C85.3571 16.4654 85.154 16.9556 84.7423 17.3446C84.3359 17.7336 83.8226 17.9307 83.2024 17.9307C82.5822 17.9307 82.0743 17.7336 81.6626 17.3446Z" fill="#F68D3D"/>
</svg>
